<svg xmlns="http://www.w3.org/2000/svg" viewBox="180 80 120 120" role="img" aria-label="Liive Favicon">
  <rect x="180" y="80" width="120" height="120" rx="28" fill="rgb(26, 122, 94)"/>
  <rect x="180" y="80" width="120" height="120" rx="28" fill="#22a07a" opacity="0.35"/>
  <circle cx="240" cy="140" r="38" fill="none" stroke="#ffffff" stroke-width="4" opacity="0.9"/>

  <g stroke="#a8eddb" stroke-width="2" stroke-linecap="round">
    <line x1="240" y1="106" x2="240" y2="112"/>
    <line x1="259" y1="111" x2="256" y2="116"/>
    <line x1="272" y1="124" x2="267" y2="127"/>
    <line x1="277" y1="143" x2="271" y2="143"/>
    <line x1="272" y1="162" x2="267" y2="158"/>
    <line x1="259" y1="175" x2="256" y2="170"/>
    <line x1="240" y1="180" x2="240" y2="174"/>
    <line x1="221" y1="175" x2="224" y2="170"/>
    <line x1="208" y1="162" x2="213" y2="158"/>
    <line x1="203" y1="143" x2="209" y2="143"/>
    <line x1="208" y1="124" x2="213" y2="127"/>
    <line x1="221" y1="111" x2="224" y2="116"/>
  </g>

  <line x1="240" y1="140" x2="240" y2="118" stroke="#ffffff" stroke-width="3.5" stroke-linecap="round"/>
  <line x1="240" y1="140" x2="258" y2="133" stroke="#ffffff" stroke-width="2.5" stroke-linecap="round"/>
  <circle cx="240" cy="140" r="4" fill="#2ec99a"/>

  <g transform="translate(282, 170)">
    <circle cx="0" cy="-6" r="9" fill="#2ec99a"/>
    <path d="M0,-6 Q-4,2 0,10 Q4,2 0,-6" fill="#2ec99a"/>
    <circle cx="0" cy="-6" r="3.5" fill="#ffffff"/>
  </g>
</svg>
